<?xml version="1.0" encoding="UTF-8" standalone="no"?>
<!-- Created with Inkscape (http://www.inkscape.org/) -->

<svg
   version="1.1"
   id="svg2"
   width="391.56"
   height="183.05333"
   viewBox="0 0 391.56 183.05333"
   sodipodi:docname="Miscellaneous_black.eps"
   xmlns:inkscape="http://www.inkscape.org/namespaces/inkscape"
   xmlns:sodipodi="http://sodipodi.sourceforge.net/DTD/sodipodi-0.dtd"
   xmlns="http://www.w3.org/2000/svg"
   xmlns:svg="http://www.w3.org/2000/svg">
  <defs
     id="defs6" />
  <sodipodi:namedview
     id="namedview4"
     pagecolor="#ffffff"
     bordercolor="#000000"
     borderopacity="0.25"
     inkscape:showpageshadow="2"
     inkscape:pageopacity="0.0"
     inkscape:pagecheckerboard="0"
     inkscape:deskcolor="#d1d1d1" />
  <g
     id="g8"
     inkscape:groupmode="layer"
     inkscape:label="ink_ext_XXXXXX"
     transform="matrix(1.3333333,0,0,-1.3333333,0,183.05333)">
    <g
       id="g10"
       transform="scale(0.1)">
      <path
         d="m 317.348,993.391 c 11.675,41.059 53.199,52.189 80.375,62.239 146.14,54.01 294.613,102.39 448.34,124.94 103.156,15.13 207.187,26.19 312.117,22.44 81.53,-2.91 82.25,-0.5 92.32,-88.51 3.34,-29.25 14.26,-54.31 29.87,-77.3 16.74,-24.66 35.89,-31.66 58.53,-5.56 16.88,19.45 26.5,45.83 27.25,67.47 2.27,65.31 10.23,131.93 -8.28,196.25 -9.85,34.25 -30.1,52.87 -67.98,52.57 -109.93,-0.89 -218.2,-16 -327.038,-30.51 -154.485,-20.59 -305.485,-55.26 -453.485,-105.01 -114.254,-38.42 -217.269,-73.45 -322.91,-134.78 -16.328,-9.48 -45.234,-21.32 -48,-45.78"
         style="fill:none;stroke:#100f0d;stroke-width:50;stroke-linecap:butt;stroke-linejoin:miter;stroke-miterlimit:10;stroke-dasharray:none;stroke-opacity:1"
         id="path12" />
      <path
         d="M 84.7891,928.469 C 85.832,903.883 86.625,786.816 91.4297,716.672 96.4805,642.859 113.176,569.102 139.047,499.688 180.441,388.621 252.945,300.98 349.027,242.422 488.496,157.422 633.707,85.5 791.926,43.2383 1018.21,-17.1914 1165.76,75.5508 1256.03,277.031 c 31.81,71 58.17,146.621 60.16,222.496 14.91,108.606 37.12,184.668 66.41,273.871"
         style="fill:none;stroke:#100f0d;stroke-width:50;stroke-linecap:butt;stroke-linejoin:miter;stroke-miterlimit:10;stroke-dasharray:none;stroke-opacity:1"
         id="path14" />
      <path
         d="m 1468.34,785.133 c 30.24,-0.16 60.47,-0.313 90.65,-0.801 92,-1.477 185,13.699 278.05,15.645 53.74,1.125 107.29,10.519 161.03,14.578 106.14,8.011 211.9,19.336 317.14,36.234 79.59,12.781 159.51,23.246 239.01,36.586 96.12,16.129 191.7,36.094 288.09,49.961 21.35,3.074 38.12,7.453 53.55,22.062 13.47,12.758 19.66,31.563 13.29,45.972 -6.85,15.51 -20.63,27.26 -42.63,27.41 -54.46,0.37 -104.56,-10.57 -156.31,-22.02 0,0 -245.99,-36.537 -327.04,-54.643 -93.94,-20.988 -191.33,-25.371 -287.29,-35.672 -100.84,-10.828 -201.97,-20.832 -302.83,-26.699 -108.02,-6.281 -216.37,-16.644 -324.71,-16.578 h -0.02 c -108.33,-0.066 -216.68,10.297 -324.7,16.578 -100.87,5.867 -201.995,15.871 -302.831,26.699 -95.961,10.301 -193.359,14.684 -287.297,35.672 -81.043,18.106 -327.035,54.643 -327.035,54.643 -51.758,11.45 -101.855,22.39 -156.3125,22.02 -22,-0.15 -35.7773,-11.9 -42.6289,-27.41 -6.3672,-14.409 -0.1797,-33.214 13.2891,-45.972 15.4258,-14.609 32.1992,-18.988 53.5547,-22.062 96.3826,-13.867 191.9686,-33.832 288.0856,-49.961 79.5,-13.34 159.422,-23.805 239.012,-36.586 105.242,-16.898 210.992,-28.223 317.141,-36.234 53.742,-4.059 107.292,-13.453 161.032,-14.578 93.04,-1.946 186.04,-17.122 278.04,-15.645 30.19,0.488 60.41,0.641 90.67,0.801 z"
         style="fill:none;stroke:#100f0d;stroke-width:50;stroke-linecap:butt;stroke-linejoin:miter;stroke-miterlimit:10;stroke-dasharray:none;stroke-opacity:1"
         id="path16" />
      <path
         d="m 2619.32,993.391 c -11.68,41.059 -53.2,52.189 -80.38,62.239 -146.14,54.01 -294.61,102.39 -448.34,124.94 -103.15,15.13 -207.19,26.19 -312.12,22.44 -81.52,-2.91 -82.25,-0.5 -92.31,-88.51 -3.35,-29.25 -14.26,-54.31 -29.88,-77.3 -16.74,-24.66 -35.88,-31.66 -58.53,-5.56 -16.88,19.45 -26.5,45.83 -27.25,67.47 -2.26,65.31 -10.23,131.93 8.28,196.25 9.85,34.25 30.1,52.87 67.98,52.57 109.93,-0.89 218.2,-16 327.04,-30.51 154.49,-20.59 305.49,-55.26 453.49,-105.01 114.25,-38.42 217.27,-73.45 322.91,-134.78 16.33,-9.48 45.23,-21.32 48,-45.78"
         style="fill:none;stroke:#100f0d;stroke-width:50;stroke-linecap:butt;stroke-linejoin:miter;stroke-miterlimit:10;stroke-dasharray:none;stroke-opacity:1"
         id="path18" />
      <path
         d="m 2851.88,928.469 c -1.05,-24.586 -1.84,-141.653 -6.64,-211.797 -5.06,-73.813 -21.75,-147.57 -47.62,-216.984 -41.4,-111.067 -113.9,-198.708 -209.98,-257.266 -139.47,-85 -284.68,-156.922 -442.9,-199.1837 -226.28,-60.4297 -373.83,32.3125 -464.1,233.7927 -31.81,71 -58.18,146.621 -60.17,222.496 -14.9,108.606 -37.12,184.668 -66.4,273.871"
         style="fill:none;stroke:#100f0d;stroke-width:50;stroke-linecap:butt;stroke-linejoin:miter;stroke-miterlimit:10;stroke-dasharray:none;stroke-opacity:1"
         id="path20" />
      <path
         d="m 1622.12,473.27 c 0,39.363 -68.78,113.531 -153.79,113.531 -85,0 -153.79,-74.168 -153.79,-113.531 0,39.363 68.79,113.531 153.79,113.531"
         style="fill:none;stroke:#100f0d;stroke-width:50;stroke-linecap:butt;stroke-linejoin:miter;stroke-miterlimit:10;stroke-dasharray:none;stroke-opacity:1"
         id="path22" />
    </g>
  </g>
</svg>
