<?xml version="1.0" encoding="UTF-8" standalone="no"?>
<!-- Created with Inkscape (http://www.inkscape.org/) -->

<svg
   version="1.1"
   id="svg2"
   width="334.14667"
   height="379.29333"
   viewBox="0 0 334.14667 379.29333"
   sodipodi:docname="Rivets_black.eps"
   xmlns:inkscape="http://www.inkscape.org/namespaces/inkscape"
   xmlns:sodipodi="http://sodipodi.sourceforge.net/DTD/sodipodi-0.dtd"
   xmlns="http://www.w3.org/2000/svg"
   xmlns:svg="http://www.w3.org/2000/svg">
  <defs
     id="defs6" />
  <sodipodi:namedview
     id="namedview4"
     pagecolor="#ffffff"
     bordercolor="#000000"
     borderopacity="0.25"
     inkscape:showpageshadow="2"
     inkscape:pageopacity="0.0"
     inkscape:pagecheckerboard="0"
     inkscape:deskcolor="#d1d1d1" />
  <g
     id="g8"
     inkscape:groupmode="layer"
     inkscape:label="ink_ext_XXXXXX"
     transform="matrix(1.3333333,0,0,-1.3333333,0,379.29333)">
    <g
       id="g10"
       transform="scale(0.1)">
      <path
         d="m 2131.97,2697.26 c -35.91,0 -65.29,27.56 -65.29,61.25 v 0 c 0,0 62.03,61.24 97.94,61.24 h 51.16 c 35.91,0 91.77,-52.15 92.57,-61.24 v 0 c 0,-33.69 -29.38,-61.25 -65.29,-61.25"
         style="fill:none;stroke:#100f0d;stroke-width:50;stroke-linecap:butt;stroke-linejoin:miter;stroke-miterlimit:10;stroke-dasharray:none;stroke-opacity:1"
         id="path12" />
      <path
         d="m 2058.3,2191.39 v 481.97 c 0,12.07 11.45,21.94 25.45,21.94 h 199.16 c 13.99,0 25.44,-9.87 25.44,-21.94 v -481.97"
         style="fill:none;stroke:#100f0d;stroke-width:50;stroke-linecap:butt;stroke-linejoin:miter;stroke-miterlimit:10;stroke-dasharray:none;stroke-opacity:1"
         id="path14" />
      <path
         d="m 2254.74,2107.75 h -150.29 c -15.56,0 -99.02,9.87 -99.02,21.94 l -127.3,39.76 c 0,12.07 12.73,21.94 28.29,21.94 h 546.35 c 15.56,0 28.29,-9.87 28.29,-21.94 l -141.45,-39.76 c 0,-12.07 -69.31,-21.94 -84.87,-21.94 z"
         style="fill:none;stroke:#100f0d;stroke-width:50;stroke-linecap:butt;stroke-linejoin:miter;stroke-miterlimit:10;stroke-dasharray:none;stroke-opacity:1"
         id="path16" />
      <path
         d="M 2260.05,25 H 2106.6 v 2082.75 h 153.45 z"
         style="fill:none;stroke:#100f0d;stroke-width:50;stroke-linecap:butt;stroke-linejoin:miter;stroke-miterlimit:10;stroke-dasharray:none;stroke-opacity:1"
         id="path18" />
      <path
         d="m 1214.27,2697.26 c -35.91,0 -65.29,27.56 -65.29,61.25 v 0 c 0,0 62.02,61.24 97.93,61.24 h 51.16 c 35.91,0 91.77,-52.15 92.58,-61.24 v 0 c 0,-33.69 -29.38,-61.25 -65.29,-61.25"
         style="fill:none;stroke:#100f0d;stroke-width:50;stroke-linecap:butt;stroke-linejoin:miter;stroke-miterlimit:10;stroke-dasharray:none;stroke-opacity:1"
         id="path20" />
      <path
         d="m 1140.59,2191.39 v 481.97 c 0,12.07 11.45,21.94 25.45,21.94 h 199.16 c 14,0 25.45,-9.87 25.45,-21.94 v -481.97"
         style="fill:none;stroke:#100f0d;stroke-width:50;stroke-linecap:butt;stroke-linejoin:miter;stroke-miterlimit:10;stroke-dasharray:none;stroke-opacity:1"
         id="path22" />
      <path
         d="m 1337.04,2107.75 h -150.29 c -15.56,0 -99.02,9.87 -99.02,21.94 l -127.308,39.76 c 0,12.07 12.73,21.94 28.293,21.94 h 546.355 c 15.56,0 28.29,-9.87 28.29,-21.94 l -141.45,-39.76 c 0,-12.07 -69.31,-21.94 -84.87,-21.94 z"
         style="fill:none;stroke:#100f0d;stroke-width:50;stroke-linecap:butt;stroke-linejoin:miter;stroke-miterlimit:10;stroke-dasharray:none;stroke-opacity:1"
         id="path24" />
      <path
         d="M 1342.34,500.148 H 1188.9 V 2107.75 h 153.44 z"
         style="fill:none;stroke:#100f0d;stroke-width:50;stroke-linecap:butt;stroke-linejoin:miter;stroke-miterlimit:10;stroke-dasharray:none;stroke-opacity:1"
         id="path26" />
      <path
         d="m 278.844,2697.26 c -35.91,0 -65.293,27.56 -65.293,61.25 v 0 c 0,0 62.027,61.24 97.937,61.24 h 51.16 c 35.911,0 91.77,-52.15 92.575,-61.24 v 0 c 0,-33.69 -29.379,-61.25 -65.289,-61.25"
         style="fill:none;stroke:#100f0d;stroke-width:50;stroke-linecap:butt;stroke-linejoin:miter;stroke-miterlimit:10;stroke-dasharray:none;stroke-opacity:1"
         id="path28" />
      <path
         d="m 205.168,2191.39 v 481.97 c 0,12.07 11.453,21.94 25.449,21.94 h 199.16 c 13.996,0 25.446,-9.87 25.446,-21.94 v -481.97"
         style="fill:none;stroke:#100f0d;stroke-width:50;stroke-linecap:butt;stroke-linejoin:miter;stroke-miterlimit:10;stroke-dasharray:none;stroke-opacity:1"
         id="path30" />
      <path
         d="M 401.613,2107.75 H 251.32 c -15.558,0 -99.015,9.87 -99.015,21.94 L 25,2169.45 c 0,12.07 12.7305,21.94 28.2891,21.94 H 599.645 c 15.558,0 28.293,-9.87 28.293,-21.94 l -141.454,-39.76 c 0,-12.07 -69.308,-21.94 -84.871,-21.94 z"
         style="fill:none;stroke:#100f0d;stroke-width:50;stroke-linecap:butt;stroke-linejoin:miter;stroke-miterlimit:10;stroke-dasharray:none;stroke-opacity:1"
         id="path32" />
      <path
         d="M 406.918,1056.85 H 253.477 v 1050.9 h 153.441 z"
         style="fill:none;stroke:#100f0d;stroke-width:50;stroke-linecap:butt;stroke-linejoin:miter;stroke-miterlimit:10;stroke-dasharray:none;stroke-opacity:1"
         id="path34" />
    </g>
  </g>
</svg>
