<?xml version="1.0" encoding="UTF-8"?>
<svg id="Layer_1" data-name="Layer 1" xmlns="http://www.w3.org/2000/svg" viewBox="0 0 128.94 131.74">
  <defs>
    <style>
      .cls-1 {
        fill: #fdfefe;
      }

      .cls-1, .cls-2 {
        stroke-width: 0px;
      }

      .cls-2 {
        fill: #ed1f24;
      }
    </style>
  </defs>
  <path class="cls-2" d="M128.23,45.75c-.95-2.89-3.5-5.01-6.56-5.45l-34.6-4.95-15.47-30.88c-1.37-2.74-4.19-4.46-7.28-4.46s-5.91,1.73-7.28,4.46l-15.48,30.88-34.6,4.95c-3.06.44-5.6,2.55-6.56,5.45-.95,2.89-.16,6.07,2.05,8.2l25.04,24.04-5.91,33.95c-.53,3,.73,6.04,3.23,7.82,1.42,1.01,3.09,1.53,4.78,1.53,1.29,0,2.59-.3,3.78-.92l30.95-16.03,30.95,16.03c1.19.61,2.49.92,3.78.92,1.69,0,3.36-.51,4.78-1.53,2.5-1.79,3.75-4.83,3.23-7.82l-5.91-33.95,25.04-24.04c2.21-2.13,3.01-5.31,2.05-8.2Z"/>
  <path class="cls-2" d="M109.29,13.81c-2.36-1.93-5.64-2.35-8.46-1.08l-31.86,14.36-29.61-17.78c-2.62-1.58-5.93-1.52-8.54.14s-4.07,4.63-3.76,7.67l3.49,34.37L3.99,74.21c-2.35,2.01-3.36,5.16-2.62,8.11.75,2.96,3.12,5.21,6.13,5.82l34.02,6.88,13.2,31.83c1.16,2.81,3.85,4.71,6.92,4.88,1.74.1,3.43-.37,4.85-1.27,1.09-.69,2.03-1.65,2.7-2.8l17.54-30.12,34.72-3.06c1.33-.12,2.59-.56,3.68-1.25,1.42-.9,2.56-2.24,3.21-3.85,1.15-2.85.58-6.09-1.47-8.34l-23.18-25.49,8.25-33.71c.73-2.98-.3-6.09-2.66-8.03Z"/>
  <g>
    <path class="cls-1" d="M31.67,69.35v.81c0,2.59.73,4.25,3.67,4.25,1.7,0,3.32-1.08,3.32-3.4,0-2.51-1.27-3.44-4.94-4.71-4.94-1.7-7.22-3.74-7.22-8.34,0-5.37,3.28-8.11,8.53-8.11,4.94,0,8.53,2.12,8.53,7.41v.77h-5.33c0-2.59-.89-4.09-3.01-4.09-2.51,0-3.17,1.58-3.17,3.2s.5,2.74,2.86,3.74l4.29,1.85c4.17,1.81,5.25,3.94,5.25,7.3,0,5.83-3.55,8.45-9.57,8.45s-8.76-2.93-8.76-8.03v-1.12h5.56Z"/>
    <path class="cls-1" d="M52.6,50.39h6.87l7.3,27.56h-5.79l-1.27-5.83h-7.34l-1.27,5.83h-5.79l7.3-27.56ZM53.33,67.57h5.4l-2.66-12.39h-.08l-2.66,12.39Z"/>
    <path class="cls-1" d="M68.7,77.95v-27.56h5.56v23.01h9.84v4.56h-15.4Z"/>
    <path class="cls-1" d="M101.98,50.39v4.56h-9.84v6.49h9.26v4.56h-9.26v7.41h10.23v4.56h-15.79v-27.56h15.4Z"/>
  </g>
</svg>